<svg xmlns="http://www.w3.org/2000/svg">
  <symbol id="home" viewBox="0 0 24 24" fill="currentColor">
    <path d="M0 0h24v24H0V0z" fill="none" />
    <path d="M12 5.69l5 4.5V18h-2v-6H9v6H7v-7.81l5-4.5M12 3L2 12h3v8h6v-6h2v6h6v-8h3L12 3z" />
  </symbol>
  <symbol id="search" viewBox="0 0 24 24">
    <path d="M0 0h24v24H0V0z" fill="none" />
    <path
      d="M15.5 14h-.79l-.28-.27C15.41 12.59 16 11.11 16 9.5 16 5.91 13.09 3 9.5 3S3 5.91 3 9.5 5.91 16 9.5 16c1.61 0 3.09-.59 4.23-1.57l.27.28v.79l5 4.99L20.49 19l-4.99-5zm-6 0C7.01 14 5 11.99 5 9.5S7.01 5 9.5 5 14 7.01 14 9.5 11.99 14 9.5 14z" />
  </symbol>
</svg>
